<svg xmlns="http://www.w3.org/2000/svg" version="1.1" viewBox="-5.0 -10.0 110.0 135.0">
 <path d="m36.996 37c-7.168 7.168-7.168 18.836 0 26.004 3.5859 3.5859 8.293 5.375 13 5.375 4.707 0 9.418-1.793 13-5.375 7.168-7.168 7.168-18.836 0-26.004-7.168-7.168-18.832-7.168-26.004 0zm21.848 21.844c-4.8789 4.875-12.809 4.875-17.684 0s-4.875-12.809 0-17.684c2.4375-2.4375 5.6406-3.6562 8.8438-3.6562s6.4062 1.2188 8.8398 3.6562c4.875 4.875 4.875 12.809 0 17.684z"/>
 <path d="m50 73.016c-1.625 0-2.9414 1.3164-2.9414 2.9414v14.914c0 1.625 1.3164 2.9414 2.9414 2.9414s2.9414-1.3164 2.9414-2.9414v-14.914c0-1.625-1.3164-2.9414-2.9414-2.9414z"/>
 <path d="m50 26.984c1.625 0 2.9414-1.3164 2.9414-2.9414v-14.914c0-1.625-1.3164-2.9414-2.9414-2.9414s-2.9414 1.3164-2.9414 2.9414v14.914c0 1.625 1.3164 2.9414 2.9414 2.9414z"/>
 <path d="m90.871 47.059h-14.914c-1.625 0-2.9414 1.3164-2.9414 2.9414s1.3164 2.9414 2.9414 2.9414h14.914c1.625 0 2.9414-1.3164 2.9414-2.9414s-1.3164-2.9414-2.9414-2.9414z"/>
 <path d="m9.1289 52.941h14.914c1.625 0 2.9414-1.3164 2.9414-2.9414s-1.3164-2.9414-2.9414-2.9414h-14.914c-1.625 0-2.9414 1.3164-2.9414 2.9414s1.3164 2.9414 2.9414 2.9414z"/>
 <path d="m66.273 33.727c0.57422 0.57422 1.3281 0.86328 2.0781 0.86328 0.75391 0 1.5078-0.28516 2.0781-0.86328l15.184-15.184c1.1484-1.1484 1.1484-3.0117 0-4.1602-1.1484-1.1484-3.0117-1.1484-4.1602 0l-15.184 15.184c-1.1484 1.1484-1.1484 3.0117 0 4.1602z"/>
 <path d="m33.727 66.273c-1.1484-1.1484-3.0117-1.1484-4.1602 0l-15.184 15.184c-1.1484 1.1484-1.1484 3.0117 0 4.1602 0.57422 0.57422 1.3281 0.86328 2.0781 0.86328 0.75391 0 1.5078-0.28516 2.0781-0.86328l15.184-15.184c1.1484-1.1484 1.1484-3.0117 0-4.1602z"/>
 <path d="m29.566 33.727c0.57422 0.57422 1.3281 0.86328 2.0781 0.86328 0.75391 0 1.5078-0.28516 2.0781-0.86328 1.1484-1.1484 1.1484-3.0117 0-4.1602l-15.184-15.184c-1.1484-1.1484-3.0117-1.1484-4.1602 0-1.1484 1.1484-1.1484 3.0117 0 4.1602l15.184 15.184z"/>
 <path d="m70.434 66.273c-1.1484-1.1484-3.0117-1.1484-4.1602 0-1.1484 1.1484-1.1484 3.0117 0 4.1602l15.184 15.184c0.57422 0.57422 1.3281 0.86328 2.0781 0.86328 0.75391 0 1.5078-0.28516 2.0781-0.86328 1.1484-1.1484 1.1484-3.0117 0-4.1602l-15.184-15.184z"/>
 <path d="m11.34 36.418 13.68 5.9414c0.38281 0.16406 0.77734 0.24219 1.168 0.24219 1.1367 0 2.2188-0.66016 2.6992-1.7695 0.64844-1.4883-0.035157-3.2227-1.5273-3.8672l-13.68-5.9414c-1.4883-0.64844-3.2227 0.035156-3.8672 1.5273-0.64844 1.4883 0.035156 3.2227 1.5273 3.8672z"/>
 <path d="m88.66 63.582-13.68-5.9414c-1.4883-0.64844-3.2227 0.035156-3.8672 1.5273-0.64844 1.4883 0.035157 3.2227 1.5273 3.8672l13.68 5.9414c0.38281 0.16406 0.77734 0.24219 1.168 0.24219 1.1367 0 2.2188-0.66016 2.6992-1.7695 0.64844-1.4883-0.035156-3.2227-1.5273-3.8672z"/>
 <path d="m40.832 71.109c-1.4922-0.64844-3.2227 0.035156-3.8672 1.5273l-5.9414 13.68c-0.64844 1.4883 0.035156 3.2227 1.5273 3.8672 0.38281 0.16406 0.77734 0.24219 1.168 0.24219 1.1367 0 2.2188-0.66016 2.6992-1.7695l5.9414-13.68c0.64844-1.4883-0.035156-3.2227-1.5273-3.8672z"/>
 <path d="m59.168 28.891c0.38281 0.16406 0.77734 0.24219 1.168 0.24219 1.1367 0 2.2188-0.66016 2.6992-1.7695l5.9414-13.68c0.64844-1.4883-0.035156-3.2227-1.5273-3.8672-1.4883-0.64844-3.2227 0.035156-3.8672 1.5273l-5.9414 13.68c-0.64844 1.4883 0.035156 3.2227 1.5273 3.8672z"/>
 <path d="m62.262 73.066c-0.59766-1.5117-2.3047-2.25-3.8164-1.6562-1.5117 0.59766-2.2539 2.3047-1.6562 3.8164l7.8789 19.973c0.45703 1.1562 1.5625 1.8633 2.7383 1.8633 0.35938 0 0.72266-0.066406 1.0781-0.20703 1.5117-0.59766 2.2539-2.3047 1.6562-3.8164z"/>
 <path d="m37.738 26.934c0.45703 1.1562 1.5625 1.8633 2.7383 1.8633 0.35938 0 0.72266-0.066406 1.0781-0.20703 1.5117-0.59766 2.2539-2.3047 1.6562-3.8164l-7.8789-19.973c-0.59766-1.5117-2.3047-2.2539-3.8164-1.6562-1.5117 0.59766-2.2539 2.3047-1.6562 3.8164z"/>
 <path d="m96.855 31.52c-0.59766-1.5117-2.3047-2.25-3.8164-1.6562l-19.973 7.8789c-1.5117 0.59766-2.2539 2.3047-1.6562 3.8164 0.45703 1.1562 1.5625 1.8633 2.7383 1.8633 0.35937 0 0.72266-0.066406 1.0781-0.20703l19.973-7.8789c1.5117-0.59766 2.2539-2.3047 1.6562-3.8164z"/>
 <path d="m28.59 58.445c-0.59766-1.5117-2.3047-2.25-3.8164-1.6562l-19.973 7.8789c-1.5117 0.59766-2.2539 2.3047-1.6562 3.8164 0.45703 1.1562 1.5625 1.8633 2.7383 1.8633 0.35938 0 0.72266-0.066406 1.0781-0.20703l19.973-7.8789c1.5117-0.59766 2.2539-2.3047 1.6562-3.8164z"/>
<text x="0.0" y="117.5" font-size="5.0" font-weight="bold" font-family="Arbeit Regular, Helvetica, Arial-Unicode, Arial, Sans-serif" fill="#000000">Created by Mike Zuidgeest</text><text x="0.0" y="122.5" font-size="5.0" font-weight="bold" font-family="Arbeit Regular, Helvetica, Arial-Unicode, Arial, Sans-serif" fill="#000000">from Noun Project</text></svg>