<svg xmlns="http://www.w3.org/2000/svg" version="1.1" viewBox="-5.0 -10.0 110.0 135.0">
 <g>
  <path d="m31.398 28.398c0.10156 0 0.10156 0 0 0 1-0.10156 1.6016-0.80078 1.6016-1.6016l-0.19922-3.8008c0-0.89844-0.80078-1.5-1.6016-1.5-0.89844 0-1.5 0.80078-1.5 1.6016l0.19922 3.8008c0 0.80078 0.70312 1.5 1.5 1.5z"/>
  <path d="m40.199 30.102c0.60156 0 1.1016-0.30078 1.3984-0.89844l1.6992-3.3984c0.39844-0.80078 0.10156-1.6992-0.69922-2.1016-0.80078-0.39844-1.6992-0.10156-2.1016 0.69922l-1.6992 3.3984c-0.39844 0.80078-0.10156 1.6992 0.69922 2.1016 0.20312 0.097656 0.50391 0.19922 0.70312 0.19922z"/>
  <path d="m46.898 36c0.30078 0 0.60156-0.10156 0.89844-0.30078l3.1992-2.1016c0.69922-0.5 0.89844-1.3984 0.39844-2.1992-0.39453-0.69922-1.3945-0.89844-2.0938-0.39844l-3.1992 2.1016c-0.69922 0.5-0.89844 1.3984-0.39844 2.1992 0.19531 0.39844 0.69531 0.69922 1.1953 0.69922z"/>
  <path d="m10 45.5c0 0.80078 0.69922 1.5 1.6016 1.5h0.10156l3.8008-0.19922c0.89844 0 1.5-0.80078 1.5-1.6016s-0.80078-1.5-1.6016-1.5l-3.8008 0.19922c-1 0-1.6016 0.70312-1.6016 1.6016z"/>
  <path d="m16.398 37.801c0.19922 0.10156 0.5 0.19922 0.69922 0.19922 0.60156 0 1.1016-0.30078 1.3984-0.89844 0.39844-0.80078 0.10156-1.6992-0.69922-2.1016l-3.3984-1.6992c-0.80078-0.39844-1.6992-0.10156-2.1016 0.69922-0.39844 0.80078-0.10156 1.6992 0.69922 2.1016z"/>
  <path d="m22.199 25.602c-0.5-0.69922-1.3984-0.89844-2.1992-0.39844-0.69922 0.5-0.89844 1.3984-0.39844 2.1992l2.1016 3.1992c0.30078 0.5 0.80078 0.69922 1.3008 0.69922 0.30078 0 0.60156-0.10156 0.89844-0.30078 0.69922-0.5 0.89844-1.3984 0.39844-2.1992z"/>
  <path d="m61.102 44.398c-2.3008-1.8984-5.1992-3.1016-8.3008-3.1016-5.5 0-10.301 3.5-12.102 8.5 0 0.10156-0.10156 0.30078-0.10156 0.39844-0.19922 0.69922-0.39844 1.5-0.5 2.3008-0.10156 0.39844-0.30078 0.80078-0.69922 1.1016h-0.10156c-0.39844 0.19922-0.89844 0.30078-1.3984 0.10156-1.1992-0.39844-2.3984-0.69922-3.6016-0.69922-5.8008 0-10.5 4.6992-10.5 10.5 0 5.1016 3.6016 9.3008 8.3984 10.301 0.69922 0.10156 1.3984 0.19922 2.1016 0.19922h24.703c-2.3984-3.1992-3.8008-7.1016-3.8008-11.301 0-3.1016 0.80078-6.1016 2.1016-8.6992 1.3008-2.5 3.1016-4.6016 5.3008-6.3008 0.30078-0.19922 0.60156-0.5 0.89844-0.69922-0.69922-0.89844-1.5-1.8008-2.3984-2.6016z"/>
  <path d="m29.199 34.301c-1.3984 0.5-2.6016 1.1992-3.6992 2.3008-0.39844 0.30078-0.69922 0.69922-1 1.1016-1.1992 1.6016-1.8984 3.3984-2 5.3984 0 0.60156 0 1.3008 0.10156 2 0.39844 3.1016 2.1992 5.6016 4.6016 7.1016l0.10156-0.10156c2-1.1992 4.3984-2 7-2 0.69922 0 1.5 0.10156 2.1992 0.19922 0.30078 0 0.5 0.10156 0.80078 0.10156 0.69922-2.8008 2.1016-5.3008 4-7.1992 0.30078-0.30078 0.60156-0.60156 0.89844-0.80078-0.39844-2.6016-1.6992-4.8984-3.8008-6.5-1.8008-1.3008-3.8008-2-6-2-0.30078 0-0.5 0-0.80078 0.10156h-0.5c-0.60156 0.10156-1.1016 0.19922-1.6992 0.39844-0.10156-0.20312-0.10156-0.20312-0.20312-0.10156z"/>
  <path d="m74.102 46.898c-8.6992 0-15.898 7.1016-15.898 15.898 0 8.6992 7.1016 15.898 15.898 15.898 8.6992 0 15.898-7.1016 15.898-15.898s-7.1016-15.898-15.898-15.898zm9 17.402h-9c-0.89844 0-1.6016-0.69922-1.6016-1.6016v-9c0-0.89844 0.69922-1.6016 1.6016-1.6016 0.89844 0 1.6016 0.69922 1.6016 1.6016v7.3984h7.3984c0.89844 0 1.6016 0.69922 1.6016 1.6016-0.003906 0.90234-0.70312 1.6016-1.6016 1.6016z"/>
 </g>
<text x="0.0" y="117.5" font-size="5.0" font-weight="bold" font-family="Arbeit Regular, Helvetica, Arial-Unicode, Arial, Sans-serif" fill="#000000">Created by Uswa KDT</text><text x="0.0" y="122.5" font-size="5.0" font-weight="bold" font-family="Arbeit Regular, Helvetica, Arial-Unicode, Arial, Sans-serif" fill="#000000">from Noun Project</text></svg>