<svg xmlns="http://www.w3.org/2000/svg" version="1.1" viewBox="-5.0 -10.0 110.0 135.0">
 <path d="m32.086 28.629c-0.39844-0.70703-0.15234-1.6367 0.55469-2.0352 0.73047-0.42188 1.6367-0.15625 2.0352 0.55469l2.8125 4.8516c0.42188 0.73047 0.17578 1.6406-0.55469 2.0586-0.71094 0.39844-1.6172 0.15625-2.0352-0.55469zm38.426 32.688c1.8828-8.1914-1.3281-16.809-8.2383-21.77-7.3281-5.2695-17.23-5.2695-24.559 0-6.9102 4.9609-10.121 13.578-8.2383 21.77h-22.992c-0.82031 0-1.4844 0.6875-1.4844 1.5078 0 0.82031 0.66406 1.5078 1.4844 1.5078h39v0.75391c0 0.81641 0.6875 1.5039 1.5078 1.5039 0.84375 0 1.5078-0.6875 1.5078-1.5039v-14.777l-2.9688 3.2773c-0.55469 0.61719-1.5039 0.66406-2.1055 0.10937-0.62109-0.55469-0.66406-1.5078-0.10938-2.1055l5.5781-6.1562c0.57422-0.66406 1.6406-0.66406 2.2148 0l5.5586 6.1562c0.55469 0.59766 0.50781 1.5508-0.10938 2.1055-0.59766 0.55469-1.5508 0.50781-2.1055-0.10937l-2.9688-3.2773v14.02h42.012c0.81641 0 1.5078-0.6875 1.5078-1.5078 0-0.82031-0.6875-1.5078-1.5078-1.5078zm21.395 16.5c0.61719 0.55469 0.66406 1.5078 0.10938 2.125-0.55469 0.59766-1.5039 0.64453-2.125 0.089844-0.62109-0.57422-1.4648-1.043-2.4141-1.3516-0.99609-0.33203-2.125-0.53125-3.3008-0.53125-3.2344 0-4.7617 1.2188-6.2695 2.4375-1.9258 1.5508-3.875 3.1016-8.1484 3.1016-4.2734 0-6.2227-1.5508-8.1484-3.1016-0.97656-0.77344-1.9492-1.5742-3.3203-2.0156-0.77344-0.24219-1.2188-1.1055-0.95312-1.8828 0.24219-0.79688 1.0859-1.2188 1.8828-0.95312 1.8594 0.59766 3.0547 1.5508 4.2539 2.5273 1.5273 1.2148 3.0312 2.4141 6.2891 2.4141 3.2344 0 4.7617-1.2188 6.2695-2.4141 1.9297-1.5508 3.875-3.1016 8.1484-3.1016 1.4844 0 2.9453 0.24609 4.2539 0.6875 1.3438 0.44141 2.543 1.1289 3.4727 1.9688zm-42.012-1.4414c0.73047-0.375 1.6133-0.085938 2.0156 0.64453 0.375 0.73047 0.089844 1.6406-0.64453 2.0156-0.79688 0.42188-1.5078 0.97656-2.2148 1.5508-0.023437 0.019531-0.042969 0.042968-0.066406 0.066406-1.9297 1.5273-3.8555 3.0352-8.0859 3.0352-4.2734 0-6.1992-1.5508-8.1484-3.1016-1.5078-1.2188-3.0352-2.4375-6.2695-2.4375s-4.7617 1.2188-6.2695 2.4375c-1.9492 1.5508-3.875 3.1016-8.1484 3.1016-1.2383 0-2.3047-0.13281-3.2109-0.37891-0.95312-0.24219-1.75-0.57422-2.457-0.97656-0.73047-0.39844-0.99609-1.3047-0.59766-2.0352s1.3281-0.97266 2.0391-0.57422c0.50781 0.26562 1.0625 0.50781 1.75 0.6875 0.6875 0.17578 1.4844 0.26562 2.4805 0.26562 3.2344 0 4.7617-1.2188 6.2695-2.4141 1.9297-1.5508 3.875-3.1016 8.1484-3.1016s6.2227 1.5508 8.1484 3.1016c1.5078 1.1953 3.0352 2.4141 6.2695 2.4141 3.1875 0 4.7188-1.1758 6.2031-2.3477 0.019531-0.023437 0.042969-0.042969 0.089843-0.066406 0.79297-0.66797 1.6133-1.3086 2.6992-1.8867zm-44.25-3.5664c-0.66406-0.44141-0.86328-1.3711-0.39844-2.0586s1.3711-0.86328 2.0586-0.39844c0.64453 0.42188 1.418 0.77344 2.2812 1.0195 0.86328 0.22266 1.793 0.35547 2.7891 0.35547 3.2344 0 4.7383-1.1953 6.2461-2.4141 1.9258-1.5508 3.8555-3.0781 8.1055-3.0781 4.2734 0 6.1992 1.5273 8.1055 3.0781 0.99609 0.77344 1.9727 1.5742 3.3203 1.9961 0.77344 0.26562 1.1953 1.1055 0.95312 1.8828-0.26562 0.79688-1.1094 1.2188-1.8828 0.95312-1.8359-0.59766-3.0312-1.5508-4.2305-2.5039-1.5078-1.2188-3.0352-2.4141-6.2656-2.4141-3.2148 0-4.7188 1.1953-6.2461 2.4141-1.9062 1.5273-3.832 3.0781-8.1055 3.0781-1.2383 0-2.4609-0.17969-3.5898-0.48828-1.1484-0.3125-2.2344-0.79688-3.1406-1.4219zm40.883 0.6875c-0.73047 0.375-1.6406 0.085937-2.0156-0.64453-0.37891-0.73047-0.089844-1.6172 0.62109-1.9922 0.79688-0.42188 1.5078-0.99609 2.2148-1.5508l0.066406-0.066406c1.9062-1.5078 3.832-3.0117 8.0391-3.0117 4.2734 0 6.1797 1.5273 8.1055 3.0781 1.5078 1.2188 3.0352 2.4141 6.2461 2.4141 3.2344 0 4.7383-1.1953 6.2461-2.4141 1.9258-1.5508 3.8555-3.0781 8.1289-3.0781 4.2539 0 6.1797 1.5273 8.1055 3.0781 0.61719 0.51172 1.2617 1.0195 1.9727 1.418 0.70703 0.39844 0.95313 1.3086 0.55469 2.0156-0.42188 0.73047-1.3281 0.97656-2.0391 0.57422-0.90625-0.53125-1.6367-1.1055-2.3477-1.6836-1.5273-1.2188-3.0312-2.4141-6.2461-2.4141-3.2344 0-4.7383 1.1953-6.2422 2.4141-1.9297 1.5273-3.8555 3.0781-8.1289 3.0781-4.2539 0-6.1797-1.5508-8.1055-3.0781-1.5078-1.2188-3.0117-2.4141-6.2461-2.4141-3.168 0-4.6953 1.1523-6.1797 2.3477-0.019532 0.023438-0.042969 0.042969-0.066406 0.066406-0.82422 0.64453-1.6211 1.2891-2.6836 1.8633zm1.9727-55.676c0-0.81641 0.66406-1.5078 1.5078-1.5078 0.82031 0 1.4844 0.6875 1.4844 1.5078v11.227c0 0.84375-0.66406 1.5078-1.4844 1.5078-0.84375 0-1.5078-0.66406-1.5078-1.5078zm16.809 9.3242c0.39844-0.70703 1.3281-0.97656 2.0391-0.55469 0.71094 0.39844 0.95312 1.3281 0.55469 2.0352l-2.8164 4.875c-0.42188 0.71094-1.3281 0.95312-2.0391 0.55469-0.70703-0.42188-0.97266-1.3281-0.55469-2.0586zm17.562 8.793c0.70703-0.42188 1.6172-0.17578 2.0352 0.55469 0.42188 0.70703 0.17578 1.6172-0.53125 2.0391l-9.7422 5.6016c-0.71094 0.42188-1.6172 0.17578-2.0391-0.53125-0.42188-0.71094-0.17578-1.6406 0.53125-2.0391zm0.33203 19.199c0.82031 0 1.5078 0.66406 1.5078 1.5078 0 0.81641-0.6875 1.5039-1.5078 1.5039h-5.625c-0.82031 0-1.4844-0.6875-1.4844-1.5039 0-0.84375 0.66406-1.5078 1.4844-1.5078zm-66.418 3.0117c-0.82031 0-1.4844-0.6875-1.4844-1.5039 0-0.84375 0.66406-1.5078 1.4844-1.5078h5.625c0.82031 0 1.5039 0.66406 1.5039 1.5078 0 0.81641-0.6875 1.5039-1.5039 1.5039zm-1.1523-19.621c-0.70703-0.42188-0.97266-1.3281-0.55469-2.0391 0.42188-0.73047 1.3281-0.97656 2.0391-0.55469l9.7227 5.625c0.73047 0.39844 0.97656 1.3047 0.55469 2.0391-0.39844 0.70703-1.3047 0.95312-2.0352 0.53125z"/>
<text x="0.0" y="117.5" font-size="5.0" font-weight="bold" font-family="Arbeit Regular, Helvetica, Arial-Unicode, Arial, Sans-serif" fill="#000000">Created by hanis tusiyani</text><text x="0.0" y="122.5" font-size="5.0" font-weight="bold" font-family="Arbeit Regular, Helvetica, Arial-Unicode, Arial, Sans-serif" fill="#000000">from Noun Project</text></svg>