<svg xmlns="http://www.w3.org/2000/svg" version="1.1" viewBox="-5.0 -10.0 110.0 135.0">
 <path d="m50 33.668c4.3984 0 8.3828 1.8281 11.266 4.7852s4.668 7.0391 4.668 11.551c0 4.5117-1.7852 8.5938-4.668 11.551-2.8828 2.957-6.8672 4.7852-11.266 4.7852s-8.3828-1.8281-11.266-4.7852c-2.8828-2.957-4.668-7.0391-4.668-11.551 0-4.5117 1.7852-8.5938 4.668-11.551s6.8672-4.7852 11.266-4.7852zm-5.5703-10.152c0.14062 0.53516-0.17188 1.0859-0.69531 1.2305-0.52344 0.14453-1.0586-0.17578-1.1992-0.71094l-2.5273-13.555 4.4219 13.039zm11.758 52.75c-0.14062-0.53516 0.17188-1.0859 0.69531-1.2305 0.52344-0.14453 1.0586 0.17578 1.1992 0.71094l2.5859 13.77-4.4766-13.25zm-14.902-44.344c0.26953 0.48047 0.10547 1.0898-0.35938 1.3672-0.46875 0.27344-1.0625 0.10938-1.332-0.37109l-4.293-9.6289zm18.023 36.012c-0.26953-0.48047-0.10938-1.0938 0.35547-1.3711 0.46875-0.27734 1.0664-0.11328 1.3359 0.36328l4.3789 9.7773-6.0703-8.7734zm-25.629-28.953c0.46875 0.27344 0.62891 0.88672 0.35937 1.3672-0.26953 0.48047-0.86719 0.64453-1.332 0.37109l-8.418-6.1367 9.3906 4.4023zm33.172 21.949c-0.46875-0.27734-0.62891-0.89063-0.35547-1.3711 0.26953-0.48047 0.86719-0.64453 1.3359-0.36328l8.5547 6.2227zm-41.859-18.938c0.52344 0.14062 0.83203 0.69531 0.69531 1.2305-0.14062 0.53516-0.67578 0.85156-1.1992 0.71094l-12.727-4.5352 13.234 2.5938zm50.484 15.949c-0.52344-0.14062-0.83203-0.69531-0.69531-1.2305 0.14062-0.53516 0.67578-0.85156 1.1992-0.71094l12.938 4.5938zm-51.32-1.793c0.52344-0.14453 1.0586 0.17578 1.1992 0.71094s-0.17188 1.0859-0.69531 1.2305l-13.387 2.6367zm52.152-12.25c-0.52344 0.14453-1.0586-0.17578-1.1992-0.71094s0.17188-1.0859 0.69531-1.2305l13.598-2.6953zm-43.605 15.375c0.46875-0.27734 1.0664-0.11328 1.3359 0.36328 0.26953 0.48047 0.10938 1.0938-0.35547 1.3711l-9.3945 4.4062zm35.129-18.477c-0.46875 0.27734-1.0664 0.11328-1.3359-0.36328-0.26953-0.48047-0.10938-1.0938 0.35547-1.3711l9.5352-4.4883zm-28.238 26.273c0.26953-0.48047 0.86719-0.64453 1.3359-0.36328 0.46875 0.27734 0.62891 0.89062 0.35547 1.3711l-5.9883 8.6289 4.2969-9.6328zm21.41-34.012c-0.26953 0.48047-0.86719 0.64453-1.332 0.37109-0.46875-0.27344-0.62891-0.88672-0.35938-1.3672l6.0664-8.7773zm-18.48 42.965c0.14062-0.53516 0.67578-0.85547 1.1992-0.71094 0.52344 0.14453 0.83203 0.69531 0.69531 1.2305l-4.4297 13.066zm15.574-51.84c-0.14062 0.53516-0.67578 0.85156-1.1992 0.71094-0.52344-0.14453-0.83203-0.69531-0.69531-1.2305l4.4844-13.281-2.5938 13.801zm-8.5508 67.102c0-0.55469 0.35547-1.0039 0.78906-1.0039 0.4375 0 0.78906 0.44922 0.78906 1.0039l-0.78906 8.7109zm-0.1875-20.992c0-0.55469 0.4375-1.0039 0.98047-1.0039 0.54297 0 0.98047 0.44922 0.98047 1.0039l-0.98047 10.547zm0.1875 13.887c0-0.55469 0.35547-1.0039 0.78906-1.0039 0.4375 0 0.78906 0.44922 0.78906 1.0039l-0.78906 3.4727zm1.5664-75.473c0 1.0156-1.5469 1.0156-1.5469 0l0.77344-8.7109zm0.20703 21.156c0 0.55469-0.4375 1.0039-0.98047 1.0039-0.54297 0-0.98047-0.44922-0.98047-1.0039l0.98047-10.711zm-39.793-19.777 24.555 23.754c0.38281 0.39062 0.38281 1.0273 0 1.4219-0.38281 0.39062-1.0039 0.39062-1.3867 0zm53.172 55.938c-0.38281-0.39063-0.38281-1.0273 0-1.4219 0.38281-0.39062 1.0039-0.39062 1.3867 0l22.875 24.875zm-64.699-16.09 31.016-1.168c0.54297 0 0.98047 0.52344 0.98047 1.168 0 0.64453-0.4375 1.168-0.98047 1.168zm69.281 1.168c-0.54297 0-0.98047-0.52344-0.98047-1.168 0-0.64453 0.4375-1.168 0.98047-1.168l30.719 1.168zm-57.84 38.746 23.199-25.207c0.38281-0.39062 1.0039-0.39062 1.3867 0 0.38281 0.39062 0.38281 1.0273 0 1.4219zm54.188-54.137c-0.38281 0.39062-1.0039 0.39062-1.3867 0-0.38281-0.39063-0.38281-1.0273 0-1.4219l24.758-23.965-23.371 25.383zm-14.441-19.824c0 1.1211-1.6992 1.0898-1.6992 0l0.85156-3.4727 0.85156 3.4727zm8.3945 36.91c0.09375-0.34766 0.44141-0.55469 0.78125-0.46094 0.33984 0.09375 0.53906 0.45312 0.44922 0.80078-0.48047 1.8047-1.3867 3.4336-2.6055 4.7578-1.2227 1.3281-2.7539 2.3555-4.4805 2.9531-0.33203 0.11328-0.69531-0.070312-0.80469-0.41016s0.066406-0.71094 0.40234-0.82422c1.5234-0.52734 2.8789-1.4336 3.9609-2.6094 1.0742-1.1719 1.8789-2.6094 2.3008-4.207zm0.29688-12.922c-2.5273-2.5898-6.0195-4.1953-9.8789-4.1953s-7.3516 1.6016-9.8789 4.1953-4.0898 6.1719-4.0898 10.129c0 3.957 1.5625 7.5352 4.0898 10.129s6.0195 4.1953 9.8789 4.1953 7.3516-1.6016 9.8789-4.1953c2.5273-2.5898 4.0898-6.1719 4.0898-10.129 0-3.957-1.5625-7.5352-4.0898-10.129z"/>
<text x="0.0" y="117.5" font-size="5.0" font-weight="bold" font-family="Arbeit Regular, Helvetica, Arial-Unicode, Arial, Sans-serif" fill="#000000">Created by Oleksandr Panasovskyi</text><text x="0.0" y="122.5" font-size="5.0" font-weight="bold" font-family="Arbeit Regular, Helvetica, Arial-Unicode, Arial, Sans-serif" fill="#000000">from Noun Project</text></svg>