<svg xmlns="http://www.w3.org/2000/svg" viewBox="0 0 64 80" x="0px" y="0px"><path d="M16.242,2.563a4.623,4.623,0,0,0-3.591.931L7.538,7.466a4.623,4.623,0,0,0-1.792,3.252c-.206,1.259.784,4.77,2.528,3.727l10.954-8.51C20.673,4.5,17.508,2.678,16.242,2.563ZM7.919,12.189a2.71,2.71,0,0,1,.843-3.142l5.12-3.976a2.7,2.7,0,0,1,3.248-.039Z"/><path d="M51.3,3.5a4.742,4.742,0,0,0-6.793,1.086,1,1,0,0,0,.213,1.352l10.953,8.51c1.749,1.045,2.731-2.473,2.529-3.728a4.625,4.625,0,0,0-1.79-3.249Zm4.728,8.692L46.818,5.032a2.708,2.708,0,0,1,3.253.041L55.189,9.05A2.7,2.7,0,0,1,56.029,12.189Z"/><path d="M32.015,6.21C14.511,5.635.292,24.094,5.267,40.876a1,1,0,1,0,1.927-.532C2.592,24.819,15.793,7.662,32,8.211c13.781-.284,25.926,11.86,25.639,25.645.32,14.658-13.416,27.164-27.973,25.528a1,1,0,0,0-1.091.9c0,1.672,2.378,1.044,3.469,1.214a27.637,27.637,0,0,0,18.594-7.262C69.192,37.2,57.112,6.281,32.015,6.21Z"/><path d="M31.807,54.57a1,1,0,0,0,.066,2C62.156,55.3,62.319,12.611,32.01,11.14c-13.636-.39-25.1,13.25-22.383,26.63a1,1,0,0,0,1.967-.36C9.122,25.259,19.569,12.78,31.959,13.139,59.655,14.492,59.508,53.418,31.807,54.57Z"/><path d="M29.541,20.943,31.21,19.25c.015.094.078,14.555.122,14.629a.99.99,0,0,0,1,1.025l10.032-.022-1.671,1.643a1.007,1.007,0,0,0,.7,1.713,1,1,0,0,0,.7-.287l3.416-3.36a1,1,0,0,0,.012-1.414l-3.361-3.416a1,1,0,0,0-1.426,1.4l1.691,1.718L33.31,32.9l-.1-13.666L34.9,20.905a1,1,0,0,0,1.405-1.425L32.9,16.116a1.019,1.019,0,0,0-1.415.011l-3.363,3.412A1,1,0,0,0,29.541,20.943Z"/><path d="M16.7,44.554A6.565,6.565,0,0,0,10.031,51.2c.329,8.755,13,8.755,13.33,0v-.061A6.549,6.549,0,0,0,16.7,44.554Zm0,11.231A4.487,4.487,0,0,1,12.031,51.2a4.665,4.665,0,0,1,9.329-.031A4.5,4.5,0,0,1,16.7,55.785Z"/><path d="M26.312,48.934a4.266,4.266,0,0,1-.739-.642c.063-1.11,1.013-2.563.168-3.695-.81-1.141-2.482-.722-3.553-.969-.589-.953-.679-2.669-2.036-3.093-1.331-.452-2.424.913-3.452,1.306-1.035-.387-2.127-1.76-3.459-1.306-1.342.418-1.462,2.131-2.021,3.082-1.082.275-2.747-.174-3.568.98-.835,1.118.088,2.585.174,3.675-.737.852-2.322,1.469-2.309,2.9-.014,1.412,1.558,2.057,2.3,2.879-.062,1.109-1.012,2.563-.167,3.694.809,1.141,2.482.723,3.552.968.589.954.68,2.669,2.037,3.095,1.287.458,2.441-.913,3.451-1.306,1.036.385,2.127,1.757,3.459,1.306,1.343-.42,1.462-2.131,2.022-3.082,1.081-.275,2.748.173,3.568-.98.837-1.119-.088-2.586-.175-3.676a3.838,3.838,0,0,1,.745-.661C28.38,52.033,28.378,50.305,26.312,48.934ZM25.1,51.816c-2.157,1.436-1.516,2.644-1.01,4.727-.979.174-2.21-.085-3.084.558S20,58.985,19.529,59.858c-.9-.45-1.736-1.363-2.833-1.359s-1.935.909-2.832,1.359c-.468-.872-.6-2.126-1.474-2.758s-2.107-.384-3.085-.557c.14-.986.759-2.075.419-3.106-.307-1.014-1.513-1.545-2.178-2.268.666-.721,1.871-1.252,2.178-2.265.34-1.033-.277-2.121-.418-3.108.978-.173,2.21.085,3.083-.557s1.007-1.886,1.475-2.758c.9.45,1.736,1.363,2.832,1.36s1.936-.91,2.833-1.36c.467.873.6,2.127,1.475,2.758s2.105.384,3.084.557c-.141.987-.76,2.074-.419,3.107.307,1.014,1.512,1.545,2.178,2.266A5.013,5.013,0,0,1,25.1,51.816Z"/><text x="0" y="79" fill="#000000" font-size="5px" font-weight="bold" font-family="'Helvetica Neue', Helvetica, Arial-Unicode, Arial, Sans-serif">Created by Dharma Prasetya</text><text x="0" y="84" fill="#000000" font-size="5px" font-weight="bold" font-family="'Helvetica Neue', Helvetica, Arial-Unicode, Arial, Sans-serif">from the Noun Project</text></svg>