<svg xmlns="http://www.w3.org/2000/svg" data-name="Layer 2" viewBox="0 0 64 80" x="0px" y="0px"><path d="m16.00717,28.88343c0-.55225-.44727-1-1-1H6.00717c-.55273,0-1,.44775-1,1s.44727,1,1,1h9c.55273,0,1-.44775,1-1Z" style="" stroke-width=" 0px"/><path d="m19.98666,17.86292c.85425.02905,1.34558-1.11218.70703-1.70703l-6.36426-6.36377c-.92676-.91956-2.33594.48444-1.41406,1.41406l6.36426,6.36377c.19531.19531.45117.29297.70703.29297Z" style="" stroke-width=" 0px"/><path d="m31.00717,2.88343v9c.02112,1.31171,1.97791,1.31653,2-.00006,0,.00006,0-8.99994,0-8.99994-.02112-1.31177-1.97791-1.31653-2,0Z" style="" stroke-width=" 0px"/><path d="m51.09897,9.79163c-.39062-.39062-1.02344-.39062-1.41406,0l-6.36426,6.36377c-.39062.39062-.39062,1.02344,0,1.41406s1.02344.39062,1.41406,0l6.36426-6.36377c.39062-.39062.39062-1.02344,0-1.41406Z" style="" stroke-width=" 0px"/><path d="m58.00717,27.88343h-9c-1.31177.02124-1.31665,1.97778,0,2h9c1.31177-.02124,1.31665-1.97784,0-2Z" style="" stroke-width=" 0px"/><path d="m15.7601,21.07142c-1.22192-.48193-1.97144,1.32269-.76562,1.84766l.92383.38281c1.21509.48474,1.9751-1.32074.76562-1.84772,0,.00006-.92383-.38275-.92383-.38275Z" style="" stroke-width=" 0px"/><path d="m10.37534,21.00599l1.84766.76514c1.21436.48438,1.97571-1.3205.76562-1.84772,0,.00006-1.84766-.76508-1.84766-.76508-1.2207-.48175-1.97217,1.32257-.76562,1.84766Z" style="" stroke-width=" 0px"/><path d="m24.57748,13.56019c.51257,1.21027,2.34106.44019,1.84766-.76569,0,.00006-.38281-.92377-.38281-.92377-.52515-1.20508-2.32935-.45715-1.84766.76562l.38281.92383Z" style="" stroke-width=" 0px"/><path d="m24.89487,9.09925l-.76562-1.84766c-.52405-1.20477-2.32959-.45728-1.84766.76562l.76562,1.84766c.51245,1.21002,2.34106.44037,1.84766-.76562Z" style="" stroke-width=" 0px"/><path d="m37.97104,11.87074l-.38281.92383c-.4812,1.21802,1.31848,1.97546,1.84766.76556,0,.00006.38281-.92377.38281-.92377.48157-1.22223-1.323-1.97162-1.84766-.76562Z" style="" stroke-width=" 0px"/><path d="m40.96713,9.86439l.76562-1.84766c.48157-1.22211-1.32251-1.97125-1.84766-.76562l-.76562,1.84766c-.49304,1.20538,1.33496,1.97632,1.84766.76562Z" style="" stroke-width=" 0px"/><path d="m48.25424,21.07142l-.92383.38232c-1.20923.526-.44971,2.3327.76562,1.8476,0,.00006.92383-.38226.92383-.38226,1.20532-.52356.45654-2.33002-.76562-1.84766Z" style="" stroke-width=" 0px"/><path d="m51.40854,21.84779c.26025.05054,1.9624-.7594,2.23047-.84229,1.20557-.5249.45642-2.32928-.76562-1.84766l-1.84766.76562c-1.00366.39917-.68054,1.94482.38281,1.92432Z" style="" stroke-width=" 0px"/><path d="m39.73862,48.66468l-2.73145.00098v-13.00098c0-1.10254-.89746-2-2-2h-6c-1.10254,0-2,.89746-2,2v13h-2.99805c-1.64307-.05872-2.63696,2.05389-1.53711,3.28027l7.86523,9.4375c.38086.45801.94141.71973,1.53613.71973.5957,0,1.15625-.26172,1.53711-.71875l7.86523-9.43848c1.09619-1.22485.1106-3.34045-1.53711-3.28027Z" style="" stroke-width=" 0px"/><path d="m54.30893,43.91175h-1.74414v-9.29297c0-.95703-.77832-1.73535-1.73535-1.73535h-4.41113c-.95703,0-1.73535.77832-1.73535,1.73535v9.29297h-1.93945c-1.42603-.05133-2.28723,1.78333-1.33301,2.84668l5.7832,6.93945c.33008.39648.81641.62402,1.33203.62402.5166,0,1.00293-.22754,1.33398-.62402l5.78125-6.93945c.95349-1.06219.09619-2.89899-1.33203-2.84668Z" style="" stroke-width=" 0px"/><path d="m45.83847,30.94209c1.35132-8.34003-5.3894-16.13251-13.8313-16.05859-8.44092-.07434-15.18408,7.71918-13.8313,16.05859.94629.14917,1.76709.6524,2.33716,1.37231-2.37256-7.49725,3.60596-15.56091,11.49426-15.43085,7.8866-.13043,13.86853,7.93439,11.49402,15.43085.57007-.71991,1.39087-1.22314,2.33716-1.37231Z" style="" stroke-width=" 0px"/><path d="m39.00717,38.61042v2.37878c1.39453-.80957,2.63892-1.8468,3.67578-3.06989.0083-.14856-.02734-3.65753.03601-3.65674-.87317,1.73169-2.15051,3.22107-3.71179,4.34784Z" style="" stroke-width=" 0px"/><path d="m21.33139,37.91932c1.03687,1.22308,2.28125,2.26031,3.67578,3.06989v-2.37878c-1.56128-1.12677-2.83862-2.61615-3.71179-4.34784.06079.00281.02917,3.50848.03601,3.65674Z" style="" stroke-width=" 0px"/><path d="m22.84213,44.91175c-.58521-1.37366-2.35022-.93414-3.51074-1v-9.29297c0-.95703-.77832-1.73535-1.73535-1.73535h-4.41113c-.95703,0-1.73535.77832-1.73535,1.73535v9.29297h-1.74414c-1.42615-.05121-2.28711,1.78326-1.33301,2.84668l5.7832,6.93945c.65295.82385,2.01196.82446,2.66602-.00006,0,.00006,5.78125-6.93939,5.78125-6.93939.43652-.52246.52832-1.23047.23926-1.84668Z" style="" stroke-width=" 0px"/><text x="0" y="79" fill="#000000" font-size="5px" font-weight="bold" font-family="'Helvetica Neue', Helvetica, Arial-Unicode, Arial, Sans-serif">Created by LUTFI GANI AL ACHMAD</text><text x="0" y="84" fill="#000000" font-size="5px" font-weight="bold" font-family="'Helvetica Neue', Helvetica, Arial-Unicode, Arial, Sans-serif">from the Noun Project</text></svg>