<svg xmlns="http://www.w3.org/2000/svg" xmlns:xlink="http://www.w3.org/1999/xlink" version="1.1" x="0px" y="0px" viewBox="0 0 64 80" style="enable-background:new 0 0 64 64;" xml:space="preserve"><g><path d="M9.0300293,31h-5v-0.0900269c0.0099487-0.1799927,0.0199585-0.3599854,0.0299683-0.539978   c0.0200195-0.2000122,0.0300293-0.4100342,0.0499878-0.6099854c0.0200195-0.1800537,0.0400391-0.3600464,0.0599976-0.5400391   C4.2000122,29.0199585,4.2199707,28.8200073,4.25,28.6199951c0.0300293-0.1799927,0.0599976-0.3599854,0.0900269-0.5300293   C4.3699951,27.8900146,4.4099731,27.7000122,4.4400024,27.5c0.039978-0.1799927,0.0800171-0.3500366,0.1199951-0.5300293   c0.039978-0.1900024,0.0800171-0.3800049,0.1300049-0.5700073c0.0499878-0.1699829,0.0900269-0.3399658,0.1400146-0.5199585   s0.1099854-0.3699951,0.1599731-0.5599976c0.0499878-0.1700439,0.1099854-0.3400269,0.1699829-0.5100098   c0.0599976-0.1799927,0.1200562-0.3599854,0.1800537-0.5400391c0.0599976-0.1699829,0.1299438-0.3399658,0.1900024-0.5099487   c0.0699463-0.1800537,0.1399536-0.3500366,0.2099609-0.5300293c0.0700073-0.1599731,0.1400146-0.3300171,0.2200317-0.4899902   c0.0700073-0.1799927,0.1499634-0.3499756,0.2299805-0.5200195c0.0700073-0.1599731,0.1500244-0.3200073,0.2299805-0.4799805   C6.4799805,21.6199951,6.5499878,21.5,6.6099854,21.3800049l4.2999878,2.4899902   c0.0200195,0,0.0300293,0.0100098,0.0400391,0.0100098C9.8599854,26.0499878,9.1699829,28.4500122,9.0300293,31z    M11.9500122,22.1699829c-0.0100098-0.0100098-0.0200195-0.0299683-0.0400391-0.039978l-4.2999878-2.4800415   c0.0599976-0.0999756,0.1300049-0.1999512,0.1900024-0.289978C7.9000244,19.2099609,8,19.0599976,8.0999756,18.9099731   c0.1100464-0.1499634,0.210022-0.2999878,0.3200073-0.4500122C8.5300293,18.3200073,8.6400146,18.1699829,8.75,18.0299683   c0.1099854-0.1499634,0.2199707-0.289978,0.3400269-0.4299927c0.1099854-0.1400146,0.2299805-0.2799683,0.3399658-0.4199829   c0.1199951-0.1400146,0.2399902-0.2800293,0.3599854-0.4199829c0.1199951-0.1300049,0.2400513-0.2700195,0.3699951-0.4000244   c0.1200562-0.1300049,0.25-0.2600098,0.3700562-0.3900146c0.1299438-0.1300049,0.2599487-0.2600098,0.3899536-0.3900146   c0.1300049-0.1299438,0.2600098-0.25,0.3900146-0.3799438c0.1300049-0.1200562,0.2700195-0.2400513,0.4000244-0.3600464   c0.1399536-0.1300049,0.2799683-0.2399902,0.4099731-0.3599854c0.1400146-0.1199951,0.2800293-0.2399902,0.4199829-0.3499756   c0.1400146-0.1199951,0.2900391-0.2300415,0.4299927-0.3400269c0.1500244-0.1099854,0.2900391-0.2199707,0.4300537-0.3300171   c0.1499634-0.1099854,0.2999878-0.2099609,0.4499512-0.3199463C14,13.039978,14.1500244,12.9400024,14.2999878,12.8399658   c0.1199951-0.0799561,0.2300415-0.1499634,0.3500366-0.2299805l2.4799805,4.2999878   c0.0100098,0.0100098,0.0200195,0.0200195,0.0299683,0.0300293C15.0800171,18.2999878,13.3099976,20.0899658,11.9500122,22.1699829   z M18.8800049,15.9500122c-0.0100098-0.0100098-0.0100098-0.0300293-0.0100098-0.0400391l-2.4899902-4.2999878   c0.0999756-0.0499878,0.2000122-0.0999756,0.2999878-0.1500244C16.8400269,11.3699951,17,11.289978,17.1599731,11.2199707   c0.1700439-0.0799561,0.3400269-0.1599731,0.5200195-0.2399902C17.8400269,10.9099731,18,10.8399658,18.1699829,10.7699585   c0.1700439-0.0799561,0.3500366-0.1499634,0.5300293-0.2199707c0.1699829-0.0599976,0.3300171-0.1300049,0.5-0.1900024   c0.1799927-0.0599976,0.3699951-0.1199951,0.5499878-0.1799927c0.1699829-0.0599976,0.3400269-0.1199951,0.5100098-0.1699829   c0.1799927-0.0599976,0.3800049-0.1100464,0.5700073-0.1600342c0.1599731-0.0499878,0.3299561-0.0999756,0.5-0.1400146   c0.2000122-0.0499878,0.3999634-0.0999756,0.5999756-0.1399536c0.1699829-0.0400391,0.3300171-0.0800171,0.5-0.1100464   c0.210022-0.039978,0.4199829-0.0799561,0.6300049-0.1199951c0.1599731-0.0199585,0.3200073-0.0599976,0.4899902-0.0799561   C23.7700195,9.2299805,24,9.2000122,24.2199707,9.1699829c0.1600342-0.0100098,0.3100586-0.039978,0.460022-0.0499878   c0.25-0.0300293,0.5-0.0400391,0.7600098-0.0599976l0.3900146-0.0300293H26V14   c0,0.0199585,0.0100098,0.0299683,0.0100098,0.0499878C23.460022,14.1900024,21.039978,14.8499756,18.8800049,15.9500122z    M30.1300049,36.9599609c-0.5300293,0.9700317-1.3699951,1.6500244-2.3800049,1.9200439   c-0.960022,0.25-1.960022,0.1099854-2.8099976-0.4200439c-1.8599854-1.1399536-2.4899902-3.6900024-1.4099731-5.6699829   c0.7799683-1.4400024,6.2099609-7.1099854,10.7599487-11.6799927   C32.8400269,27.6099854,30.9199829,35.5100098,30.1300049,36.9599609z M34.3300171,15.5700073   c-1.9800415-0.8900146-4.1199951-1.4100342-6.3400269-1.5300293C27.9899902,14.0299683,28,14.0199585,28,14V9.0499878   c0.4099731,0.0200195,0.8200073,0.0200195,1.2199707,0.0599976c0.2400513,0.0200195,0.4800415,0.0700073,0.7200317,0.0999756   c0.4899902,0.0599976,0.9799805,0.1199951,1.4500122,0.210022c0.289978,0.0599976,0.5700073,0.1400146,0.8499756,0.2000122   c0.4299927,0.0999756,0.8599854,0.2000122,1.2700195,0.3200073c0.2999878,0.0899658,0.5899658,0.1900024,0.8800049,0.289978   c0.3900146,0.1400146,0.789978,0.2700195,1.1799927,0.4199829c0.289978,0.1199951,0.5800171,0.2600098,0.8699951,0.3900146   c0.1300049,0.0599976,0.2700195,0.1199951,0.4000244,0.1900024L34.3300171,15.5700073z M38.9799805,18.5599976   c-0.8899536-0.7900391-1.8499756-1.4800415-2.8699951-2.0800171l2.5-4.3200073   c0.2700195,0.1699829,0.5499878,0.3200073,0.8200073,0.4899902c0.2700195,0.1799927,0.539978,0.3699951,0.8099976,0.5700073   c0.3300171,0.2300415,0.6600342,0.460022,0.9700317,0.710022c0.2599487,0.210022,0.5199585,0.4299927,0.7699585,0.6400146   c0.1700439,0.1499634,0.3400269,0.3099976,0.5100098,0.4699707L38.9799805,18.5599976z M50.25,38.039978   c-0.5300293-0.1599731-1.0800171,0.1400146-1.2399902,0.6699829C46.039978,48.4500122,37.2000122,55,27,55   C14.6799927,55,4.5999756,45.2699585,4.039978,33.0899658H2.0300293C2.5900269,46.3699951,13.5700073,57,27,57   c11.0800171,0,20.6900024-7.1199951,23.9199829-17.710022C51.0800171,38.7600098,50.7800293,38.2000122,50.25,38.039978z"/><path d="M22,45c-0.5527344,0-1,0.4472656-1,1s0.4472656,1,1,1h10c0.5527344,0,1-0.4472656,1-1s-0.4472656-1-1-1H22z"/><path d="M51,17c0.5517578,0,1,0.4487305,1,1s-0.4482422,1-1,1h-8c-0.5527344,0-1,0.4477539-1,1s0.4472656,1,1,1h8   c1.6542969,0,3-1.3457031,3-3s-1.3457031-3-3-3c-0.5527344,0-1,0.4477539-1,1S50.4472656,17,51,17z"/><path d="M57,28H47c-0.5527344,0-1,0.4477539-1,1s0.4472656,1,1,1h10c1.6542969,0,3,1.3457031,3,3s-1.3457031,3-3,3   s-3-1.3457031-3-3c0-0.5522461-0.4472656-1-1-1s-1,0.4477539-1,1c0,2.7568359,2.2431641,5,5,5s5-2.2431641,5-5S59.7568359,28,57,28   z"/><path d="M38,24c0,0.5522461,0.4472656,1,1,1h16c0.5527344,0,1-0.4477539,1-1s-0.4472656-1-1-1H39   C38.4472656,23,38,23.4477539,38,24z"/><path d="M43,28h-6c-0.5527344,0-1,0.4477539-1,1s0.4472656,1,1,1h6c0.5527344,0,1-0.4477539,1-1S43.5527344,28,43,28z"/><path d="M38,35c0,0.5527344,0.4472656,1,1,1h10c0.5527344,0,1-0.4472656,1-1s-0.4472656-1-1-1H39   C38.4472656,34,38,34.4472656,38,35z"/></g><text x="0" y="79" fill="#000000" font-size="5px" font-weight="bold" font-family="'Helvetica Neue', Helvetica, Arial-Unicode, Arial, Sans-serif">Created by Iconiqu</text><text x="0" y="84" fill="#000000" font-size="5px" font-weight="bold" font-family="'Helvetica Neue', Helvetica, Arial-Unicode, Arial, Sans-serif">from the Noun Project</text></svg>