<svg xmlns="http://www.w3.org/2000/svg" version="1.1" viewBox="-5.0 -10.0 110.0 135.0">
 <path d="m36.27 36.27c-7.5703 7.5703-7.5703 19.891 0 27.457 3.7852 3.7852 8.7578 5.6758 13.73 5.6758s9.9453-1.8906 13.73-5.6758c7.5703-7.5703 7.5703-19.891 0-27.457-7.5703-7.5703-19.891-7.5703-27.457 0zm23.301 23.301c-2.5547 2.5547-5.957 3.9648-9.5703 3.9648-3.6172 0-7.0156-1.4102-9.5703-3.9648-2.5547-2.5547-3.9648-5.957-3.9648-9.5703 0-3.6172 1.4102-7.0156 3.9648-9.5703 2.5547-2.5547 5.957-3.9648 9.5703-3.9648 3.6172 0 7.0156 1.4102 9.5703 3.9648 2.5547 2.5547 3.9648 5.957 3.9648 9.5703 0 3.6172-1.4102 7.0156-3.9648 9.5703z"/>
 <path d="m49.457 74.199c-1.625 0.30078-2.6992 1.8594-2.3984 3.4844l2.9414 15.91 2.9414-15.91c0.40625-2.0039-1.4688-3.9023-3.4844-3.4844z"/>
 <path d="m50.543 25.801c1.625-0.30078 2.6992-1.8594 2.3984-3.4844l-2.9414-15.91-2.9414 15.91c-0.40625 2.0039 1.4688 3.9023 3.4844 3.4844z"/>
 <path d="m74.199 50.543c0.30078 1.625 1.8594 2.6992 3.4844 2.3984l15.91-2.9414-15.91-2.9414c-2.0039-0.40625-3.9023 1.4688-3.4844 3.4844z"/>
 <path d="m25.801 49.457c-0.30078-1.625-1.8594-2.6992-3.4844-2.3984l-15.91 2.9414 15.91 2.9414c2.0039 0.40625 3.9023-1.4688 3.4844-3.4844z"/>
 <path d="m67.496 33.035c1.2969 1 3.1602 0.76172 4.1602-0.53516l14.113-18.273-18.273 14.113c-1.5234 1.1484-1.5312 3.5469 0 4.6953z"/>
 <path d="m32.504 66.965c-1.2969-1-3.1602-0.76172-4.1602 0.53516l-14.113 18.273 18.273-14.113c1.5234-1.1484 1.5312-3.5469 0-4.6953z"/>
 <path d="m33.035 32.504c1-1.2969 0.76172-3.1602-0.53516-4.1602l-18.273-14.113 14.113 18.273c1.1484 1.5234 3.5469 1.5312 4.6953 0z"/>
 <path d="m66.965 67.496c-1 1.2969-0.76172 3.1602 0.53516 4.1602l18.273 14.113-14.113-18.273c-1.1484-1.5234-3.5469-1.5312-4.6953 0z"/>
 <path d="m28.02 39.863c0.37109-1.6094-0.63281-3.2148-2.2422-3.5859l-15.766-3.6406 13.422 9.0352c1.6758 1.1719 4.1641 0.20703 4.5859-1.8086z"/>
 <path d="m71.98 60.137c-0.37109 1.6094 0.63281 3.2148 2.2422 3.5859l15.766 3.6406-13.422-9.0352c-1.6758-1.1719-4.1641-0.20703-4.5859 1.8086z"/>
 <path d="m39.863 71.98c-1.6094-0.37109-3.2148 0.63281-3.5859 2.2422l-3.6406 15.766 9.0352-13.422c1.1719-1.6758 0.20703-4.1641-1.8086-4.5859z"/>
 <path d="m60.137 28.02c1.6094 0.37109 3.2148-0.63281 3.5859-2.2422l3.6406-15.766-9.0352 13.422c-1.1719 1.6758-0.20703 4.1641 1.8086 4.5859z"/>
 <path d="m58.59 72.805c-1.4336 0.78906-1.957 2.5938-1.168 4.0273l11.141 20.227-5.668-22.383c-0.44531-1.8555-2.6406-2.8164-4.3047-1.8711z"/>
 <path d="m41.41 27.195c1.4336-0.78906 1.957-2.5938 1.168-4.0273l-11.141-20.227 5.668 22.383c0.44531 1.8555 2.6406 2.8164 4.3047 1.8711z"/>
 <path d="m72.805 41.41c0.78906 1.4336 2.5938 1.957 4.0273 1.168l20.227-11.141-22.383 5.668c-1.8555 0.44531-2.8164 2.6406-1.8711 4.3047z"/>
 <path d="m27.195 58.59c-0.78906-1.4336-2.5938-1.957-4.0273-1.168l-20.227 11.141 22.383-5.668c1.8555-0.44531 2.8164-2.6406 1.8711-4.3047z"/>
<text x="0.0" y="117.5" font-size="5.0" font-weight="bold" font-family="Arbeit Regular, Helvetica, Arial-Unicode, Arial, Sans-serif" fill="#000000">Created by Mike Zuidgeest</text><text x="0.0" y="122.5" font-size="5.0" font-weight="bold" font-family="Arbeit Regular, Helvetica, Arial-Unicode, Arial, Sans-serif" fill="#000000">from Noun Project</text></svg>