<svg xmlns="http://www.w3.org/2000/svg" version="1.1" viewBox="-5.0 -10.0 110.0 135.0">
 <path d="m82.574 84.516c-0.32422 0-0.64844-0.125-0.89453-0.37109-0.74609-0.74609-1.4336-0.74609-2.7148-0.68359-1.375 0.066406-3.0586 0.16016-4.6406-1.4219-1.582-1.582-1.4922-3.2773-1.4219-4.6406 0.0625-1.2695 0.0625-1.9688-0.68359-2.7148-0.75-0.75-1.4453-0.74219-2.7148-0.67969-1.3633 0.0625-3.0586 0.16016-4.6406-1.4219-1.5781-1.5781-1.4922-3.2734-1.418-4.6367 0.066407-1.2656 0.070313-1.9648-0.67969-2.7109-0.49609-0.49609-0.49609-1.2969 0-1.793s1.2969-0.49609 1.793 0c1.5781 1.5781 1.4922 3.2734 1.418 4.6406-0.066406 1.2656-0.070312 1.9648 0.67969 2.707 0.75 0.75 1.4492 0.74609 2.7148 0.67969 1.3594-0.070312 3.0586-0.16016 4.6406 1.4219s1.4922 3.2773 1.4219 4.6406c-0.0625 1.2695-0.0625 1.9688 0.68359 2.7148 0.75 0.74609 1.4375 0.75391 2.7148 0.68359 1.3672-0.070313 3.0586-0.16016 4.6406 1.4219 0.49609 0.49609 0.49609 1.2969 0 1.793-0.25 0.24609-0.57422 0.37109-0.89844 0.37109zm11.383-10.859c0.49609-0.49609 0.49609-1.2969 0-1.793-1.5781-1.582-3.2812-1.4961-4.6406-1.4219-1.2617 0.0625-1.9648 0.070313-2.7148-0.67969-0.74609-0.74609-0.74609-1.4453-0.67969-2.7148 0.070313-1.3633 0.16016-3.0586-1.4219-4.6406-1.5859-1.5859-3.2891-1.4922-4.6367-1.418-1.2578 0.0625-1.9648 0.070313-2.7148-0.67969-0.74609-0.74609-0.74609-1.4414-0.67969-2.7109 0.070312-1.3633 0.16016-3.0586-1.418-4.6367-0.49609-0.49609-1.2969-0.49609-1.793 0-0.49609 0.49609-0.49609 1.2969 0 1.793 0.74609 0.74609 0.74609 1.4414 0.67969 2.7109-0.070312 1.3633-0.16016 3.0586 1.418 4.6367 1.5781 1.5781 3.2695 1.4844 4.6406 1.4219 1.2656-0.070313 1.9648-0.070313 2.7109 0.67969 0.75 0.75 0.75 1.4492 0.68359 2.7188-0.070313 1.3633-0.16016 3.0586 1.4219 4.6406 1.5781 1.5781 3.2812 1.4883 4.6406 1.4219 1.2617-0.0625 1.9648-0.070313 2.7148 0.67969 0.24609 0.24609 0.57031 0.37109 0.89453 0.37109 0.32031-0.007812 0.64453-0.12891 0.89453-0.37891zm-20.969 20.973c0.49609-0.49609 0.49609-1.2969 0-1.793-1.5859-1.5859-3.2852-1.4922-4.6406-1.4219-1.2734 0.0625-1.9688 0.0625-2.7188-0.68359-0.74609-0.74609-0.74609-1.4453-0.67969-2.7148 0.070312-1.3633 0.16016-3.0586-1.4219-4.6406-1.582-1.5781-3.2812-1.5-4.6406-1.418-1.2734 0.0625-1.9688 0.0625-2.7148-0.67969-0.74609-0.74609-0.74609-1.4414-0.67969-2.7109 0.070312-1.3633 0.16016-3.0586-1.418-4.6406-0.49609-0.49609-1.2969-0.49609-1.793 0-0.49609 0.49609-0.49609 1.2969 0 1.793 0.74609 0.74609 0.74609 1.4414 0.67969 2.7109-0.070313 1.3633-0.16016 3.0586 1.418 4.6406 1.582 1.5859 3.2891 1.4961 4.6367 1.418 1.2734-0.0625 1.9648-0.066406 2.7148 0.67969 0.74609 0.74609 0.74609 1.4453 0.67969 2.7148-0.070312 1.3633-0.16016 3.0586 1.4219 4.6406 1.5859 1.582 3.2812 1.4922 4.6406 1.4219 1.2656-0.0625 1.9648-0.070312 2.7148 0.67969 0.25391 0.25 0.57812 0.375 0.90234 0.375 0.32422 0 0.64844-0.125 0.89844-0.37109zm-8.5781-55.34c-0.74219-1.3672-0.74219-3.0234 0-4.4062l2.1836-4.0781c1.2539-2.3242 0.3125-5.2344-2.0664-6.375l-4.1797-2.0117c-1.3984-0.68359-2.3672-2.0234-2.582-3.5664l-0.62891-4.5898c-0.35547-2.625-2.8242-4.4219-5.4336-3.9375l-4.5508 0.8125c-1.5391 0.28516-3.1094-0.22656-4.1914-1.3555l-3.1953-3.3516c-1.8242-1.9102-4.875-1.9102-6.7148 0l-3.1953 3.3516c-1.082 1.125-2.6523 1.6406-4.1914 1.3555l-4.5508-0.8125c-2.6094-0.48438-5.0781 1.3125-5.4336 3.9375l-0.62891 4.5898c-0.19922 1.5391-1.168 2.8789-2.582 3.5664l-4.1797 2.0117c-2.3828 1.1406-3.3242 4.0508-2.0664 6.375l2.1953 4.0781c0.74219 1.3828 0.74219 3.0391 0 4.4062l-2.1953 4.0781c-1.2461 2.3242-0.30469 5.2305 2.0742 6.3867l4.1797 1.9961c1.4102 0.68359 2.3828 2.0234 2.582 3.5664l0.62891 4.5898c0.35547 2.625 2.8242 4.4219 5.4336 3.9492l4.5508-0.82812c1.5391-0.28516 3.1094 0.22656 4.1914 1.3555l3.1953 3.3516c1.8398 1.9102 4.8906 1.9102 6.7148 0l3.1953-3.3516c1.082-1.125 2.6523-1.6406 4.1914-1.3555l4.5508 0.82812c2.6094 0.46875 5.0781-1.3242 5.4336-3.9492l0.62891-4.5898c0.21484-1.5391 1.1836-2.8789 2.582-3.5664l4.1797-1.9961c2.3828-1.1562 3.3242-4.0625 2.0664-6.3867zm-27.992 19.621c-12.035 0-21.832-9.7969-21.832-21.816 0-12.035 9.7969-21.832 21.832-21.832 12.035 0 21.816 9.7969 21.816 21.832 0 12.02-9.7812 21.816-21.816 21.816zm0-41.113c-10.637 0-19.293 8.6562-19.293 19.293 0 10.625 8.6562 19.277 19.293 19.277s19.277-8.6562 19.277-19.277c0-10.637-8.6406-19.293-19.277-19.293z"/>
<text x="0.0" y="117.5" font-size="5.0" font-weight="bold" font-family="Arbeit Regular, Helvetica, Arial-Unicode, Arial, Sans-serif" fill="#000000">Created by MihiMihi</text><text x="0.0" y="122.5" font-size="5.0" font-weight="bold" font-family="Arbeit Regular, Helvetica, Arial-Unicode, Arial, Sans-serif" fill="#000000">from Noun Project</text></svg>