<svg xmlns="http://www.w3.org/2000/svg" version="1.1" viewBox="-5.0 -10.0 110.0 135.0">
 <path d="m33.289 8.4961h1.793c0.71094 0 1.2852 0.57422 1.2852 1.2617v2.1914c16.434 7.4844 38.535-0.35547 52.465 6.7539 1.4844 0.75391 2.3477 2.1953 2.3477 3.8555v8.5039c0 0.57422-0.22266 1.043-0.64063 1.4219-0.42187 0.37891-0.92969 0.53125-1.4844 0.44141-18.535-2.6133-32.047 11.383-52.688 9.082v1.2617c0 0.6875-0.57422 1.2617-1.2852 1.2617l-1.793-0.003906c-0.70703 0-1.2852-0.57422-1.2852-1.2617l0.003906-33.504c0-0.6875 0.57422-1.2656 1.2812-1.2656zm-22.523 15.859h3.8984c0.042969-0.042969 0.10938-0.089844 0.15234-0.13281l14.375-11.672v3.8516l-11.184 9.082v2.0352l11.184 9.1055v3.8555l-14.547-11.832h-3.875c-0.53125 0-0.97266-0.44141-0.97266-0.97266v-2.3477c-0.003906-0.53125 0.4375-0.97266 0.96875-0.97266zm-1.9492 70.648c-0.82031 0-1.5078-0.66406-1.5078-1.4844 0-0.83984 0.6875-1.5039 1.5078-1.5039h1.7266l0.003906-60.555h0.22266 2.7695v60.551h1.7266c0.82031 0 1.5078 0.66406 1.5078 1.5039 0 0.82031-0.6875 1.4844-1.5078 1.4844zm1.7305-73.441v-10.605c-0.99609-0.55469-1.6602-1.5938-1.6602-2.7891 0-1.75 1.418-3.168 3.1641-3.168 1.7305 0 3.1445 1.418 3.1445 3.168 0 1.1953-0.66406 2.2344-1.6602 2.7891v10.586h-2.7695c-0.066406-0.003907-0.15234-0.003907-0.21875 0.019531zm43.34 55.676c0.39844-0.73047 1.3281-0.99609 2.0352-0.57422 0.73047 0.39844 0.97266 1.3086 0.57422 2.0391-0.26562 0.48438-0.48828 1.0195-0.64453 1.5703-0.13281 0.50781-0.19922 1.0859-0.19922 1.6836 0 1.8398 0.73047 3.5 1.9492 4.7188 1.1953 1.1953 2.8789 1.9492 4.7188 1.9492 1.8398 0 3.5-0.75 4.7188-1.9492 1.1953-1.2188 1.9492-2.8789 1.9492-4.7188 0-1.8398-0.75391-3.5-1.9492-4.7188-1.2188-1.1953-2.8789-1.9492-4.7188-1.9492h-32.727c-0.84375 0-1.5078-0.66406-1.5078-1.5039 0-0.82031 0.66406-1.4844 1.5078-1.4844h32.73c2.6562 0 5.0703 1.0625 6.8203 2.8125s2.8359 4.1641 2.8359 6.8438c0 2.6602-1.0859 5.0938-2.8359 6.8438s-4.1641 2.8125-6.8203 2.8125c-2.6797 0-5.0938-1.0625-6.8438-2.8125s-2.8359-4.1836-2.8359-6.8438c0-0.84375 0.10938-1.6602 0.33203-2.4375 0.20313-0.81641 0.51172-1.5898 0.91016-2.2812zm3.8984-26.465c0.13281 0.82031-0.44141 1.5742-1.2617 1.7031-0.82031 0.11328-1.5703-0.44141-1.7031-1.2617-0.019531-0.15234-0.019531-0.30859-0.042968-0.48828 0-0.15234-0.023438-0.30859-0.023438-0.46484 0-1.75 0.73047-3.3438 1.8828-4.4961 1.1523-1.1758 2.7461-1.8828 4.5156-1.8828 1.75 0 3.3438 0.71094 4.4961 1.8828h0.019531c1.1523 1.1484 1.8594 2.7461 1.8594 4.4961 0 1.7695-0.70703 3.3672-1.8594 4.5195h-0.019531 0.019531c-1.1758 1.1523-2.7695 1.8828-4.5195 1.8828h-24.934c-0.82031 0-1.4844-0.6875-1.4844-1.5039 0-0.82031 0.66406-1.5078 1.4844-1.5078h24.938c0.93359 0 1.7734-0.375 2.3945-0.97266 0.59766-0.61719 0.99609-1.4609 0.99609-2.4141 0-0.93359-0.39844-1.7734-0.99609-2.3906-0.62109-0.59766-1.4609-0.97656-2.3945-0.97656-0.95312 0-1.793 0.37891-2.4141 0.97656-0.59766 0.61719-0.97266 1.4609-0.97266 2.3906v0.26562c-0.003906 0.066406 0.019531 0.15625 0.019531 0.24219zm16.809 17.145c0.39844-0.73047 1.3047-0.97656 2.0352-0.57422 0.73047 0.39844 0.97266 1.3047 0.57422 2.0352-0.28906 0.48828-0.48828 1.0195-0.64062 1.5703-0.13281 0.53125-0.19922 1.0859-0.19922 1.6836 0 1.8398 0.73047 3.5234 1.9492 4.7188 1.1953 1.2188 2.8555 1.9492 4.6953 1.9492 1.8594 0 3.5195-0.73047 4.7188-1.9492 1.2188-1.1953 1.9492-2.8828 1.9492-4.7188 0-1.8398-0.73047-3.4961-1.9492-4.6953-1.1953-1.2188-2.8555-1.9688-4.7188-1.9688h-38.688c-0.84375 0-1.5078-0.66406-1.5078-1.4844 0-0.83984 0.66406-1.5078 1.5078-1.5078h38.688c2.6797 0 5.0938 1.0859 6.8438 2.8359s2.8359 4.1641 2.8359 6.8203c0 2.6836-1.0859 5.0977-2.8359 6.8477s-4.1641 2.832-6.8438 2.832c-2.6562 0-5.0703-1.0859-6.8203-2.832-1.75-1.75-2.8359-4.1641-2.8359-6.8477 0-0.82031 0.10938-1.6406 0.3125-2.4375 0.22266-0.81641 0.53125-1.5703 0.92969-2.2773zm-38.227-28.883c4.7617 0.70703 9.168 0.39844 13.688-0.57422v-20.418c-4.6953-0.39844-8.7031-1.2383-13.688-2.8555zm27.398-4.7578c3.6094-1.2422 7.1953-2.4609 10.918-3.3242 0.93359-0.19922 1.8594-0.39844 2.7891-0.55469v-11.824c-0.97266-0.10938-1.9492-0.17969-2.9023-0.22266-3.5898-0.19922-7.1953-0.13281-10.809-0.089843z" fill-rule="evenodd"/>
<text x="0.0" y="117.5" font-size="5.0" font-weight="bold" font-family="Arbeit Regular, Helvetica, Arial-Unicode, Arial, Sans-serif" fill="#000000">Created by hanis tusiyani</text><text x="0.0" y="122.5" font-size="5.0" font-weight="bold" font-family="Arbeit Regular, Helvetica, Arial-Unicode, Arial, Sans-serif" fill="#000000">from Noun Project</text></svg>