<svg xmlns="http://www.w3.org/2000/svg" version="1.1" viewBox="-5.0 -10.0 110.0 135.0">
 <path d="m31.609 51.094c-0.58984-0.57422-0.60547-1.5234-0.03125-2.1172 0.57422-0.58984 1.5234-0.60547 2.1172-0.03125l0.16016 0.15625c0.58984 0.57422 0.60547 1.5234 0.03125 2.1172-0.57422 0.58984-1.5234 0.60547-2.1172 0.03125zm32.395-31.824c0.83203 0 1.5078 0.67188 1.5078 1.5s-0.67188 1.5-1.5 1.5c-0.83984 0-1.5117-0.67188-1.5117-1.5s0.67188-1.5 1.5078-1.5zm-4.5781-4.2344c0.11719 0.023438 0.23047 0.058594 0.33594 0.10547 1.25-0.85547 2.7578-1.3516 4.3672-1.3516 1.5742 0 3.0469 0.47266 4.2773 1.2891 0.054688-0.019531 0.11328-0.03125 0.17188-0.042969 0.66016-0.125 1.2227-0.49609 1.6016-0.99609 0.375-0.50391 0.57031-1.1445 0.50781-1.8164s-0.38281-1.2617-0.85156-1.6836c-0.45703-0.41016-1.0625-0.66406-1.7109-0.67578-0.73047 0.03125-1.3984-0.47656-1.5352-1.2188-0.11719-0.61719-0.44922-1.1562-0.90625-1.5352-0.45312-0.38281-1.043-0.60547-1.6797-0.60547-0.60547 0-1.168 0.19922-1.6094 0.54297l-0.070312 0.0625c-0.45703 0.37891-0.78906 0.91797-0.90625 1.5352-0.13281 0.69531-0.74219 1.2227-1.4766 1.2188-0.67188-0.003906-1.3008 0.25-1.7695 0.67578-0.46875 0.42188-0.78906 1.0156-0.85156 1.6836-0.0625 0.67188 0.13281 1.3164 0.50781 1.8203 0.375 0.50391 0.9375 0.87109 1.6016 0.99609zm-1.9258 2.4922c-0.82422-0.39453-1.5312-0.98047-2.0664-1.6953-0.8125-1.0859-1.2344-2.4609-1.0938-3.8984 0.14062-1.4492 0.82031-2.7227 1.8242-3.625 0.73047-0.65625 1.6367-1.125 2.6367-1.3242 0.35547-0.85938 0.91406-1.6094 1.6094-2.1836l0.10547-0.082031c0.96875-0.76953 2.1875-1.2188 3.4844-1.2188 1.3438 0 2.6016 0.48438 3.5898 1.3008 0.69922 0.57422 1.2578 1.3203 1.6094 2.1797 0.99609 0.19922 1.9062 0.66797 2.6367 1.3242 1.0039 0.90234 1.6836 2.1758 1.8242 3.6172s-0.28125 2.8203-1.0898 3.9023c-0.49219 0.65625-1.1289 1.207-1.8711 1.5977 0.49219 0.78516 0.84766 1.6641 1.0352 2.6094l2.8164 1.4883c0.19531 0.09375 0.37109 0.23438 0.51172 0.41406 0.51562 0.64453 0.40625 1.5898-0.23828 2.1055l-3.2734 2.5977v7.0859c0.11328 4.2695-0.92969 8.4062-2.9219 12.012-2.0039 3.6211-4.9648 6.7188-8.668 8.8906-1.5664 0.91797-3.2109 1.6406-4.9023 2.168v9.3945h15.004l-1.8516-4.3906c-0.32031-0.75781 0.039062-1.6367 0.79687-1.957 0.46875-0.19531 0.98047-0.13672 1.3789 0.11719l15.074 9.543c0.69922 0.44141 0.90625 1.3711 0.46484 2.0703-0.12891 0.20313-0.29688 0.36328-0.48828 0.47656l-15.047 9.5352c-0.69922 0.44141-1.625 0.23438-2.0703-0.46484-0.29687-0.46875-0.30078-1.0391-0.0625-1.5l1.8008-4.2773h-15.004v16.164c0 1.3789-0.5625 2.6289-1.4688 3.5312-0.90625 0.90625-2.1562 1.4688-3.5312 1.4688h-0.10938c-1.375 0-2.625-0.5625-3.5273-1.4688-0.91016-0.90234-1.4688-2.1523-1.4688-3.5273v-16.164h-15.242l-2.3438 5.5547-0.011719 0.027343-0.003906 0.007813-0.03125 0.070312-0.039062 0.074219-0.03125 0.046875-0.007813 0.007812-0.058593 0.085938-0.007813 0.007812-0.011719 0.015626-0.035156 0.042968-0.027344 0.027344c-0.039062 0.046875-0.082031 0.089844-0.12891 0.12891l-0.027344 0.027344-0.027344 0.023438-0.007812 0.007812-0.039062 0.03125-0.007813 0.003906-0.011719 0.011719-0.015625 0.011719-0.007812 0.003906-0.046875 0.03125-0.22656 0.11328-0.03125 0.011719-0.023437 0.007812-0.023438 0.011719-0.019531 0.007813-0.007813 0.003906-0.046874 0.015625-0.007813 0.003906-0.015625 0.003907-0.019531 0.003906-0.007813 0.003906-0.054687 0.015625h-0.007813l-0.039062 0.007813h-0.007813l-0.054687 0.007812h-0.027344l-0.019531 0.003906h-0.007813l-0.027344 0.003906h-0.10937l-10.637 0.007813c-0.82812 0-1.5-0.67188-1.5-1.5 0-0.25391 0.0625-0.49219 0.17188-0.70312l3.7305-8.8477-3.7812-8.9688c-0.32031-0.75781 0.039063-1.6367 0.79688-1.957 0.1875-0.082031 0.38672-0.11719 0.57812-0.11719l10.637-0.007813c0.66797 0 1.2344 0.4375 1.4297 1.043l2.2891 5.4297h15.246v-8.5469c-2.9453-0.39844-5.8359-1.3555-8.4961-2.875-0.71875-0.40625-0.96875-1.3203-0.5625-2.0391s1.3203-0.96875 2.0391-0.5625c3.1836 1.8164 6.7344 2.7148 10.277 2.6992 3.5352-0.019531 7.0742-0.95703 10.238-2.8125 3.2227-1.8906 5.8086-4.5898 7.5547-7.7539 1.7461-3.1641 2.6641-6.793 2.5508-10.531l-0.007813-7.8477c0-0.50781 0.25391-0.95703 0.64062-1.2305l1.9766-1.5664-1.5039-0.79297c-0.46875-0.24609-0.75391-0.70703-0.79297-1.2031-0.10938-1.2266-0.67578-2.3125-1.5234-3.0938-0.84375-0.77734-1.9766-1.25-3.2148-1.25-1.2383 0-2.3672 0.47266-3.2148 1.25-0.83203 0.76562-1.3945 1.8281-1.5156 3.0273v12.453c0 0.82812-0.67188 1.5-1.5 1.5h-30.281c0.046874 1.5234 0.26172 3.0195 0.63281 4.4648 0.49219 1.9258 1.2734 3.7695 2.3047 5.4766 0.42578 0.70703 0.19922 1.6289-0.50781 2.0547s-1.6289 0.19922-2.0547-0.50781c-1.168-1.9375-2.0586-4.0586-2.6328-6.2852-0.53125-2.0664-0.78125-4.2266-0.73047-6.4102l-0.007812-0.14844v-1.8516c0-0.12891-0.054688-0.25-0.13672-0.33594-0.085937-0.085938-0.20312-0.13672-0.33594-0.13672h-4.793c-0.82812 0-1.5-0.67188-1.5-1.5s0.67188-1.5 1.5-1.5h4.793c0.95703 0 1.8281 0.39062 2.457 1.0156 0.62891 0.62891 1.0156 1.4961 1.0156 2.457v0.20703h2.7227v-0.16016c-0.23047-2.0156-0.96094-3.5781-2.0117-4.6328-1.0547-1.0547-2.4688-1.6172-4.0391-1.6172l-4.9375 0.007813c-0.82812 0-1.5-0.67188-1.5-1.5s0.67188-1.5 1.5-1.5l4.9102 0.003906c2.3945-0.007812 4.5547 0.85156 6.1875 2.4844 1.5391 1.5391 2.5859 3.7578 2.8789 6.5547l0.007813 0.35938h2.7266l0.003906-0.20703c-0.007812-3.293-1.3398-6.2734-3.4922-8.4297-2.1562-2.1523-5.1406-3.4883-8.4297-3.4883h-4.793c-0.82812 0-1.5-0.67188-1.5-1.5 0-0.82813 0.67188-1.5 1.5-1.5h4.793c4.1172 0 7.8516 1.6719 10.547 4.3711 2.6992 2.7031 4.3672 6.4336 4.3672 10.547l-0.007812 0.20703h2.7344l0.003907-0.20703c-0.007813-2.5273-0.53516-4.9297-1.4844-7.0938-0.99609-2.2578-2.4492-4.2656-4.2383-5.9102-1.6016-1.4688-3.4727-2.6484-5.5234-3.4453-1.9766-0.76953-4.1367-1.1914-6.4023-1.1914h-4.793c-0.82812 0-1.5-0.67188-1.5-1.5s0.67188-1.5 1.5-1.5h4.793c2.6289 0 5.1523 0.49609 7.4766 1.4023 2.4141 0.9375 4.6094 2.3203 6.4766 4.0312 2.0898 1.9219 3.793 4.2734 4.9492 6.9102 1.1172 2.5508 1.7383 5.3555 1.7383 8.2969l-0.003906 0.20703h11.617l0.007812-11.137c0.10547-1.2266 0.49219-2.3633 1.0938-3.3555zm-18.938 24.379c-0.43359-0.70703-0.21484-1.6289 0.49219-2.0625 0.70703-0.43359 1.6289-0.21484 2.0625 0.49219 0.83203 1.3555 1.9844 2.4453 3.3164 3.1875 1.3359 0.74609 2.8672 1.1562 4.4609 1.1562s3.125-0.41406 4.4609-1.1562c1.332-0.74219 2.4844-1.8359 3.3164-3.1875 0.43359-0.70703 1.3555-0.92578 2.0625-0.49219s0.92578 1.3555 0.49219 2.0625c-1.1016 1.7891-2.6328 3.2344-4.418 4.2305-1.7852 0.99609-3.8164 1.543-5.9141 1.543-2.0977 0-4.1289-0.55078-5.9141-1.543-1.7852-0.99609-3.3203-2.4414-4.418-4.2305zm9.3867 15.945v8.3359h4.1055v-8.6719c-1.2695 0.21875-2.5508 0.33203-3.832 0.33594zm-20.559 15.281 1-2.3711-1.0273-2.4414-0.023437-0.054687-2.3398-5.5508h-2.0742l3.1484 7.4688c0.14844 0.35938 0.16406 0.77344 0 1.1602l-3.1484 7.4688h2.0742l2.2891-5.4336c0.027344-0.085937 0.0625-0.16797 0.10547-0.24609zm3.5781-3.9453 0.41797 0.99609c0.14844 0.35938 0.16406 0.77344 0 1.1602l-0.41797 0.99609h41.344c0.19531 0.007812 0.39062 0.042968 0.57812 0.12109 0.75781 0.32031 1.1172 1.1992 0.79688 1.957l-0.87109 2.0703 9.0352-5.7266-9.0352-5.7227 0.82031 1.9492c0.10938 0.21094 0.17188 0.44922 0.17188 0.70312 0 0.82812-0.67188 1.5-1.5 1.5h-41.344zm-11.289 9.625 3.3945-8.0469-3.3945-8.0469h-2.0742l3.1484 7.4688c0.14844 0.35938 0.16406 0.77344 0 1.1602l-3.1484 7.4688h2.0742zm32.375-3.4727h-4.1055v16.164c0 0.55078 0.22656 1.0508 0.58984 1.4102 0.35938 0.36328 0.85938 0.58984 1.4102 0.58984h0.10938c0.55078 0 1.0508-0.22656 1.4102-0.58984 0.36328-0.36328 0.58984-0.86328 0.58984-1.4102v-16.164z"/>
<text x="0.0" y="117.5" font-size="5.0" font-weight="bold" font-family="Arbeit Regular, Helvetica, Arial-Unicode, Arial, Sans-serif" fill="#000000">Created by Imam Kurniadi</text><text x="0.0" y="122.5" font-size="5.0" font-weight="bold" font-family="Arbeit Regular, Helvetica, Arial-Unicode, Arial, Sans-serif" fill="#000000">from Noun Project</text></svg>